<svg data-v-6805eed4="" version="1.0" xmlns="http://www.w3.org/2000/svg" xmlns:xlink="http://www.w3.org/1999/xlink" width="100%" height="100%" viewBox="0 0 340.000000 250.000000" preserveAspectRatio="xMidYMid meet" color-interpolation-filters="sRGB" style="margin: auto;">   <g data-v-6805eed4="" fill="#fcb927" class="iconlettersvg-g iconlettersvg" transform="translate(28.55099269747734,82.4219970703125)"><g><g class="tp-name" transform="translate(44.924163818359375,0)"><g transform="scale(1.3800000000000003)"><g transform="translate(0, 0)"><g class="name-imagesvg"><g><rect fill="#fcb927" fill-opacity="0" stroke-width="2" x="0" y="0" width="49.88528978870955" height="50" class="image-rect"></rect> <svg x="0" y="0" width="49.88528978870955" height="50" filtersec="colorsb6928254867" class="image-svg-svg primary" style="overflow: visible;"><svg xmlns="http://www.w3.org/2000/svg" viewBox="0 0 131.64 131.94"><title>资源 8</title><path d="M112.75 112.45A66 66 0 0 1 66 131.94a75.31 75.31 0 0 1-16.5-2.1l-.3-.3h-.9A66 66 0 0 1 0 66h131.64a65.51 65.51 0 0 1-19.2 46.48z" fill="#22219b"></path><path d="M19.49 112.45a65.53 65.53 0 0 1 0-93.26L66 66z" fill="#fcb927"></path><path d="M66 0a65.73 65.73 0 0 1 46.78 19.19L80.36 51.58 66 66 19.49 19.19A64.49 64.49 0 0 1 66 0z" fill="#22219b"></path></svg></svg> <!----></g></g></g><g transform="translate(44.88528978870955, 0)"><g class="name-imagesvg"><g><rect fill="#fcb927" fill-opacity="0" stroke-width="2" x="0" y="0" width="50" height="50" class="image-rect"></rect> <svg x="0" y="0" width="50" height="50" filtersec="colorsb6553146812" class="image-svg-svg primary" style="overflow: visible;"><svg xmlns="http://www.w3.org/2000/svg" viewBox="0 0 131.94 131.94"><title>资源 25</title><path d="M66 0A66 66 0 1 1 0 66 66 66 0 0 1 66 0z" fill="#22219b"></path><path d="M66 0a65.95 65.95 0 0 1 46.48 112.75L19.19 19.19A67 67 0 0 1 66 0z" fill="#fcb927"></path></svg></svg> <!----></g></g></g><g transform="translate(89.88528978870954, 0)"><g class="name-imagesvg"><g><rect fill="#fcb927" fill-opacity="0" stroke-width="2" x="0" y="0" width="50" height="50" class="image-rect"></rect> <svg x="0" y="0" width="50" height="50" filtersec="colorsb1566808399" class="image-svg-svg primary" style="overflow: visible;"><svg xmlns="http://www.w3.org/2000/svg" viewBox="0 0 131.94 131.94"><title>资源 25</title><path d="M66 0A66 66 0 1 1 0 66 66 66 0 0 1 66 0z" fill="#fcb927"></path><path d="M66 0a65.95 65.95 0 0 1 46.48 112.75L19.19 19.19A67 67 0 0 1 66 0z" fill="#22219b"></path></svg></svg> <!----></g></g></g></g></g></g> </g><defs v-gra="od"></defs></svg>